<?xml version="1.0" encoding="UTF-8" standalone="no"?>
<!-- Created with Inkscape (http://www.inkscape.org/) -->

<svg
   width="50"
   height="50"
   viewBox="0 0 13.229166 13.229166"
   version="1.1"
   id="svg5"
   inkscape:version="1.2.2 (732a01da63, 2022-12-09)"
   sodipodi:docname="pozostale_kluby.svg"
   xmlns:inkscape="http://www.inkscape.org/namespaces/inkscape"
   xmlns:sodipodi="http://sodipodi.sourceforge.net/DTD/sodipodi-0.dtd"
   xmlns="http://www.w3.org/2000/svg"
   xmlns:svg="http://www.w3.org/2000/svg">
  <sodipodi:namedview
     id="namedview7"
     pagecolor="#ffffff"
     bordercolor="#000000"
     borderopacity="0.25"
     inkscape:showpageshadow="2"
     inkscape:pageopacity="0.0"
     inkscape:pagecheckerboard="0"
     inkscape:deskcolor="#d1d1d1"
     inkscape:document-units="mm"
     showgrid="false"
     inkscape:zoom="5.6568543"
     inkscape:cx="-6.098796"
     inkscape:cy="34.913397"
     inkscape:window-width="1920"
     inkscape:window-height="991"
     inkscape:window-x="-9"
     inkscape:window-y="-9"
     inkscape:window-maximized="1"
     inkscape:current-layer="svg5" />
  <defs
     id="defs2" />
  <path
     id="path21382"
     style="fill:#000000;fill-opacity:1;fill-rule:evenodd;stroke:#000000;stroke-width:0.349999;stroke-opacity:1;paint-order:fill markers stroke"
     d="M 11.028784 4.0085409 L 10.029362 4.7366618 L 10.592635 6.4626546 L 11.738302 6.4611043 A 5.1263022 5.1263022 0 0 0 11.028784 4.0085409 z " />
  <path
     id="path22415"
     style="fill:#000000;fill-opacity:1;fill-rule:evenodd;stroke:#000000;stroke-width:0.349999;stroke-opacity:1;paint-order:fill markers stroke"
     d="M 10.430888 10.033496 L 9.7213704 9.5198324 L 8.2542765 10.588501 L 8.5111084 11.37605 A 5.1263022 5.1263022 0 0 0 10.430888 10.033496 z " />
  <path
     id="path22421"
     style="fill:#000000;fill-opacity:1;fill-rule:evenodd;stroke:#000000;stroke-width:0.349999;stroke-opacity:1;paint-order:fill markers stroke"
     d="M 4.6369263 11.342977 L 4.8818726 10.584884 L 3.4121948 9.5198324 L 2.7610718 9.994222 A 5.1263022 5.1263022 0 0 0 4.6369263 11.342977 z " />
  <path
     id="path22424"
     style="fill:#000202;fill-opacity:1;fill-rule:evenodd;stroke:#000000;stroke-width:0.349999;stroke-opacity:1;paint-order:fill markers stroke"
     d="M 1.4939657 6.4616211 L 2.5486816 6.4600708 L 3.1073039 4.7325277 L 2.1755778 4.0576335 A 5.1263022 5.1263022 0 0 0 1.4939657 6.4616211 z " />
  <path
     id="path22427"
     style="fill:#ffffff;fill-opacity:1;fill-rule:evenodd;stroke:#000000;stroke-width:0.349999;stroke-opacity:1;paint-order:fill markers stroke"
     d="M 7.8310465 1.6371094 L 7.4780965 2.7285156 L 5.6627035 2.7310994 L 5.312854 1.659847 A 5.1263022 5.1263022 0 0 0 2.1755778 4.0576335 L 3.1073039 4.7325277 L 2.5486816 6.4600708 L 1.4939657 6.4616211 A 5.1263022 5.1263022 0 0 0 1.4882812 6.6145833 A 5.1263022 5.1263022 0 0 0 2.7610718 9.994222 L 3.4121948 9.5198324 L 4.8818726 10.584884 L 4.6369263 11.342977 A 5.1263022 5.1263022 0 0 0 6.6145833 11.740885 A 5.1263022 5.1263022 0 0 0 8.5111084 11.37605 L 8.2542765 10.588501 L 9.7213704 9.5198324 L 10.430888 10.033496 A 5.1263022 5.1263022 0 0 0 11.740885 6.6145833 A 5.1263022 5.1263022 0 0 0 11.738302 6.4611043 L 10.592635 6.4626546 L 10.029362 4.7366618 L 11.028784 4.0085409 A 5.1263022 5.1263022 0 0 0 7.8310465 1.6371094 z " />
  <path
     id="path22418"
     style="fill:#000000;fill-opacity:1;fill-rule:evenodd;stroke:#000000;stroke-width:0.349999;stroke-opacity:1;paint-order:fill markers stroke"
     d="M 5.312854 1.659847 L 5.6627035 2.7310994 L 7.4780965 2.7285156 L 7.8310465 1.6371094 A 5.1263022 5.1263022 0 0 0 6.6145833 1.4882812 A 5.1263022 5.1263022 0 0 0 5.312854 1.659847 z " />
  <path
     sodipodi:type="star"
     style="fill:#000000;fill-opacity:1;fill-rule:evenodd;stroke:#000000;stroke-width:0.349999;stroke-opacity:1;paint-order:fill markers stroke"
     id="path21384"
     inkscape:flatsided="true"
     sodipodi:sides="5"
     sodipodi:cx="5.1917105"
     sodipodi:cy="5.5191154"
     sodipodi:r1="1.54419"
     sodipodi:r2="1.249276"
     sodipodi:arg1="0.95758898"
     sodipodi:arg2="1.5859075"
     inkscape:rounded="0"
     inkscape:randomized="0"
     d="M 6.0803817,6.781964 4.2652846,6.7545336 3.7304766,5.0197973 5.2150441,3.9751017 6.6673653,5.0641806 Z"
     inkscape:transform-center-x="0.00065064569"
     inkscape:transform-center-y="-0.1468382"
     transform="rotate(-0.94392313,82.557837,-80.260363)" />
  <g
     id="g22039"
     transform="translate(-0.04641938,0.10610269)">
    <path
       style="fill:#ffffff;fill-opacity:1;fill-rule:evenodd;stroke:#000000;stroke-width:0.349999;stroke-opacity:1;paint-order:fill markers stroke"
       d="m 6.6145835,6.6145832 -3e-7,-1.5930922 3e-7,-3.5332098"
       id="path21672" />
    <path
       style="fill:#ffffff;fill-opacity:1;fill-rule:evenodd;stroke:#000000;stroke-width:0.349999;stroke-opacity:1;paint-order:fill markers stroke"
       d="M 6.6145835,6.6889975 5.0994627,6.1967052 1.7391806,5.104883"
       id="path21672-3" />
    <path
       style="fill:#ffffff;fill-opacity:1;fill-rule:evenodd;stroke:#000000;stroke-width:0.349999;stroke-opacity:1;paint-order:fill markers stroke"
       d="M 6.6145835,6.6889975 8.1297045,6.1967052 11.489986,5.104883"
       id="path21672-3-7" />
    <path
       style="fill:#ffffff;fill-opacity:1;fill-rule:evenodd;stroke:#000000;stroke-width:0.349999;stroke-opacity:1;paint-order:fill markers stroke"
       d="m 6.6145835,6.5401694 0.936396,1.288839 2.0767703,2.8584276"
       id="path21672-3-2-8" />
    <path
       style="fill:#ffffff;fill-opacity:1;fill-rule:evenodd;stroke:#000000;stroke-width:0.349999;stroke-opacity:1;paint-order:fill markers stroke"
       d="M 6.6145835,6.5401694 5.6781875,7.8290084 3.6014172,10.687436"
       id="path21672-3-2-8-1" />
  </g>
</svg>
