<svg height="346.845806" viewBox="0 0 447.13 538.05" width="288.312553" xmlns="http://www.w3.org/2000/svg" xmlns:xlink="http://www.w3.org/1999/xlink"><clipPath id="a"><path d="m0 0h447.128906v538.050781h-447.128906zm0 0"/></clipPath><g clip-path="url(#a)"><path d="m447.136719.00390625v189.17578175c0 51.589843-18.832031 216.195312-223.566406 348.871093-204.738282-132.675781-223.570313-297.28125-223.570313-348.871093v-189.17578175z" fill="#2e3092"/></g><path d="m413.667969 19.660156h-396.46875v165.234375c0 35.421875 7.9375 114.316407 68.167969 200.25.015625.015625.023437.035157.039062.050782 2.730469 3.890625 5.5625 7.800781 8.511719 11.71875.007812.011718.015625.023437.023437.03125.167969.222656.335938.445312.5.660156 2.773438 3.667969 5.636719 7.347656 8.609375 11.035156 0 0 .003907.003906.003907.003906.179687.222657.363281.445313.539062.664063 2.945313 3.644531 5.980469 7.28125 9.128906 10.933594 0 0 .007813.011718.011719.011718 1.101563 1.28125 2.21875 2.554688 3.347656 3.84375h.007813c1.121094 1.277344 2.265625 2.546875 3.414062 3.820313.003907.003906.003907.011719.007813.011719.011719.015625.027344.035156.042969.050781 1.136718 1.253906 2.265625 2.527344 3.425781 3.78125 1.171875 1.269531 2.371094 2.542969 3.566406 3.808594 0 0 .003906.003906.003906.003906 3.207032 3.410156 6.503907 6.816406 9.894532 10.21875.007812.007812.007812.007812.011718.011719.597657.597656 1.203125 1.195312 1.804688 1.792968 1.824219 1.8125 3.671875 3.621094 5.550781 5.425782.027344.035156.058594.058593.085938.089843.035156.027344.066406.0625.101562.097657 1.265625 1.214843 2.53125 2.4375 3.820313 3.65625.007812.007812.015625.007812.019531.019531 1.0625.996094 2.148437 1.996094 3.230469 3 1.792968 1.664062 3.613281 3.320312 5.457031 4.980469 0 .003906.003906.011718.003906.011718.007813.003907.015625.003907.019531.015625 1.613282 1.453125 3.226563 2.90625 4.878907 4.355469.007812.003906.007812.011719.011718.015625 1.808594 1.582031 3.632813 3.171875 5.480469 4.753906 2.019531 1.726563 4.070313 3.449219 6.140625 5.167969.003906.003906.007813.011719.011719.011719h.003906c2.296875 1.910156 4.625 3.8125 6.992188 5.710937.003906.011719.011718.019532.023437.023438 0 .007812.003906.007812.007813.007812 2.601562 2.097657 5.25 4.195313 7.933593 6.28125.015625.003907.035157.023438.054688.039063.007812 0 .015625.011719.019531.011719 11.101563 8.625 22.886719 17.167968 35.460938 25.589843 4.734375-3.175781 9.335937-6.371093 13.863281-9.574218.003906 0 .003906-.007813.011719-.011719h.003906c13.167969-9.335938 25.453125-18.785156 36.894531-28.3125.101563-.089844.210938-.175781.3125-.265625 10.324219-8.613281 19.964844-17.273438 28.972656-25.96875h.007813c0-.003906 0-.003906 0-.003906 13.257812-12.785157 25.136719-25.617188 35.785156-38.390625.007813-.011719.015625-.023438.027344-.03125 2.554687-3.070313 5.035156-6.128907 7.453125-9.191407.246094-.316406.488281-.628906.738281-.945312 2.335938-2.96875 4.613281-5.941406 6.820313-8.898438.023437-.023437.039062-.054687.066406-.082031 2.160156-2.90625 4.25-5.800781 6.292969-8.691406.394531-.554688.777343-1.105469 1.164062-1.65625 1.996094-2.855469 3.957031-5.707031 5.839844-8.550781.003906 0 .003906-.003907.011719-.011719.007812-.011719.011718-.023438.023437-.035156 1.980469-2.992188 3.886719-5.96875 5.75-8.941407.226563-.355468.457031-.71875.679688-1.078125 3.394531-5.453125 6.589843-10.867187 9.589843-16.234375.113282-.199218.222657-.398437.332032-.597656 3.765625-6.75 7.246093-13.429687 10.425781-20 .003906-.011719.007812-.027344.015625-.035156 0-.011719.003906-.011719.007812-.015625 1.90625-3.945313 3.714844-7.863281 5.425782-11.738281.007812 0 .011718-.003907.011718-.003907 0-.011718.007813-.03125.007813-.035156 13.382812-30.253906 20.925781-58.042969 25.070312-81.378906 0 0 .007813-.003906.007813-.003906 0-.003907 0-.007813 0-.011719.550781-3.101563 1.042969-6.128906 1.476562-9.070313 0-.003906 0-.003906 0-.007812 2.003907-13.441406 2.878907-25.136719 3.160157-34.625 0 0 0-.003906 0-.007813.039062-1.214843.066406-2.386718.085937-3.53125 0-.238281.007813-.476562.007813-.710937.019531-1.140625.027343-2.253906.027343-3.320313v-165.234375zm-320.140625 48.316407h285.191406v89.050781c0 1.800781-.035156 3.585937-.054687 5.378906-.027344 2.738281-.078125 5.460938-.144532 8.171875 0 .117188-.003906.234375-.007812.351563-.0625 2.355468-.121094 4.710937-.214844 7.046875-.089844 2.246093-.214844 4.476562-.335937 6.707031-.113282 2.03125-.238282 4.054687-.378907 6.074219-.132812 1.933593-.265625 3.867187-.421875 5.789062-.148437 1.828125-.332031 3.640625-.507812 5.457031-.125 1.304688-.242188 2.613282-.382813 3.910157-.054687.527343-.09375 1.054687-.152343 1.574218-.199219 1.808594-.441407 3.59375-.660157 5.390625-.601562 4.828125-1.261718 9.636719-2.054687 14.398438-.023438.199219-.070313.398437-.105469.597656-.445312 2.671875-.929687 5.332031-1.4375 7.984375-.171875.914063-.359375 1.824219-.546875 2.734375-.359375 1.792969-.738281 3.585938-1.128906 5.375-.195313.886719-.371094 1.78125-.570313 2.667969-.191406.855469-.421875 1.707031-.621093 2.5625-.007813.023437-.011719.046875-.015625.070312-.515625 2.183594-1.023438 4.363282-1.585938 6.53125-.324219 1.257813-.691406 2.507813-1.035156 3.761719-.527344 1.933594-1.039063 3.867188-1.601563 5.792969-.75 2.558594-1.554687 5.105469-2.378906 7.644531-.964844 2.988281-1.980469 5.964844-3.046875 8.929688-.007812.03125-.015625.054687-.023437.078125-1.191407 3.316406-2.441407 6.625-3.757813 9.925781-1.421875 3.542969-2.90625 7.082031-4.476562 10.605469-.003907.003906-.007813.011718-.011719.023437-1.675781 3.753906-3.472656 7.488281-5.328125 11.214844-2.003906 4.023437-4.117188 8.039062-6.335938 12.035156-3.121093 5.617188-6.464843 11.214844-10.035156 16.796875-13.113281 20.503906-29.339844 40.804688-49.246094 61.171875-.039062.046875-.082031.089844-.113281.125-3.238281 3.308594-6.578125 6.613281-10.003906 9.929688-.132813.128906-.269531.257812-.398438.386718-3.46875 3.339844-7.035156 6.6875-10.707031 10.039063-3.613281 3.292969-7.320312 6.597656-11.128906 9.894531-2.632813 2.28125-5.324219 4.554688-8.054688 6.839844-.3125.261719-.625.527344-.9375.789062-2.835937 2.355469-5.714843 4.71875-8.652343 7.085938-2.175782 1.75-4.3125 3.503906-6.546875 5.253906-3.503907-2.746094-6.914063-5.496094-10.269532-8.238281-1.832031-1.5-3.601562-2.992188-5.390625-4.488281-1.25-1.042969-2.503906-2.085938-3.726562-3.128907-.445313-.367187-.898438-.742187-1.335938-1.113281-1.5625-1.328125-3.070312-2.660156-4.59375-3.984375-.953125-.824219-1.890625-1.65625-2.832031-2.476562-.5-.445313-1.011719-.886719-1.507812-1.332032-1.371094-1.210937-2.742188-2.4375-4.085938-3.648437-1.328125-1.203125-2.621094-2.410156-3.925781-3.605469-1.277344-1.183594-2.59375-2.359375-3.84375-3.542969-1.257813-1.183593-2.453125-2.355468-3.683594-3.535156-.554687-.539062-1.101562-1.066406-1.652344-1.597656-.703125-.679688-1.414062-1.355469-2.105468-2.039063-1.234375-1.207031-2.464844-2.414062-3.671875-3.621093-.015625-.019532-.023438-.023438-.039063-.042969-2.800781-2.800781-5.542969-5.601563-8.210937-8.40625-.40625-.429688-.796875-.855469-1.199219-1.285156-.890625-.949219-1.769531-1.890625-2.648438-2.839844-1.160156-1.25-2.347656-2.492188-3.476562-3.738281-.644531-.710938-1.261719-1.425782-1.886719-2.140625-1.742187-1.945313-3.476562-3.894532-5.15625-5.847657-1.128906-1.3125-2.21875-2.628906-3.320312-3.941406-1.152344-1.382812-2.308594-2.75-3.429688-4.125-1.105469-1.367187-2.1875-2.726562-3.269531-4.085937-1.078125-1.359375-2.148438-2.722657-3.199219-4.089844-1.058594-1.371094-2.105469-2.742188-3.132812-4.117188-.824219-1.101562-1.625-2.210937-2.429688-3.3125-.207031-.28125-.417969-.5625-.621094-.84375-1.003906-1.382812-2.019531-2.769531-2.992187-4.152343-.277344-.398438-.535156-.792969-.808594-1.183594-.699219-1.007813-1.394531-2.027344-2.085937-3.042969-.953125-1.394531-1.925782-2.792969-2.847657-4.199219-10.699218-16.238281-19.394531-32.589843-26.414062-49.195312-1.707031-4.050781-3.34375-8.105469-4.855469-12.175781-.003906-.011719-.007812-.023438-.011719-.035157-1.761718-4.757812-3.375-9.535156-4.882812-14.339843-.003906 0-.003906-.003907-.003906-.007813-1.210938-3.855469-2.339844-7.738281-3.398438-11.632812-.085937-.308594-.171875-.617188-.253906-.925782-1.074219-3.980468-2.070313-7.976562-2.972656-12-.007813-.007812-.007813-.019531-.011719-.035156-.75-3.34375-1.449219-6.703125-2.09375-10.082031-.011719-.070313-.027344-.144531-.039063-.210938-.636718-3.339843-1.226562-6.691406-1.765625-10.058593-1.882812-11.726563-3.1875-23.652344-4-35.816407 0-.003906 0-.003906 0-.003906-.625-9.390625-.953125-18.929687-1.023437-28.628906-.011719-1.402344-.039063-2.792969-.039063-4.203125v-89.050781z" fill="#ffd520"/><path d="m27.308594 111.378906v-83.53125l27.785156 29.480469v54.050781z" fill="#2e3092"/><path d="m30.898438 223.371094c-3.152344-22.789063-3.589844-42.167969-3.589844-56.78125v-.753906l27.863281-.816407c.28125 17.753907 1.378906 36.222657 4.082031 55.265625z" fill="#2e3092"/><path d="m70.519531 343.40625c-10.628906-19.570312-18.660156-38.546875-24.714843-56.554687l26.5625-9.667969c5.738281 17.519531 13.292968 35.378906 23.195312 53.492187z" fill="#2e3092"/><path d="m145.683594 441.902344c-15.25-15.058594-28.542969-30.121094-40.125-45.058594l21.765625-18.070312c11.179687 14.332031 24.042969 28.769531 38.847656 43.261718z" fill="#2e3092"/><path d="m119.5625 27.847656h54.054688v29.480469h-54.054688z" fill="#2e3092"/><path d="m223.570313 27.847656h54.046875v29.480469h-54.046875z" fill="#2e3092"/><path d="m343.136719 27.847656h76.695312l-27.785156 29.480469h-48.910156z" fill="#2e3092"/><path d="m419.832031 111.378906v54.457032l-27.867187-.816407c.050781-3.378906.082031-6.738281.082031-10.066406v-43.574219z" fill="#2e3092"/><path d="m416.238281 223.371094c-2.628906 18.992187-7.140625 40.351562-14.84375 63.300781l-26.566406-9.675781c6.328125-19.359375 10.441406-38.304688 13.054688-56.710938z" fill="#2e3092"/><path d="m376.667969 343.320313c-9.460938 17.417968-20.984375 35.320312-35.015625 53.425781l-21.761719-18.070313c12.589844-16.15625 23.03125-32.175781 31.683594-48z" fill="#2e3092"/><path d="m301.765625 441.597656c-21.808594 21.570313-47.625 43.121094-78.195312 64.203125v-34.863281c21.839843-16.371094 40.894531-32.730469 57.5-49.003906z" fill="#2e3092"/><path d="m150.273438 84.351563c-2.046875 0-12.695313 2.871093-14.742188 9.417968 3.6875 4.097657 13.105469 1.640625 15.972656 4.507813 0 0 3.273438 2.042969 5.320313 2.042969 0 0 4.503906-.816407 4.503906-4.910157 0-2.867187-3.683594-11.058593-11.054687-11.058593" fill="#ffd520"/><path d="m144.949219 108.921875c3.277344-10.644531 22.113281-4.914062 22.113281-7.367187 1.636719 2.863281 2.457031 8.1875-4.503906 8.1875-4.503906 0-14.332031-2.867188-17.609375-.820313" fill="#ffd520"/><path d="m173.617188 110.96875c-3.6875 2.457031-16.792969-.820312-20.066407 4.09375 2.046875 2.046875 6.550782 8.191406 16.378907 8.191406 2.867187 0 10.234375-2.867187 3.6875-12.285156" fill="#ffd520"/><path d="m174.433594 299.328125c-4.503906 2.863281-10.648438 4.09375-13.105469 4.09375-4.503906 0-20.882812-10.652344-26.203125-10.652344-3.6875 0-11.46875 4.507813-12.285156 9.011719 4.503906 2.046875 25.796875 6.140625 32.347656 6.140625-8.191406 9.011719-29.484375 1.636719-29.484375 19.652344 0 4.917969 1.230469 7.371094 4.507813 11.46875 3.277343-4.5 7.367187-9.007813 10.234375-13.921875 2.457031-3.277344 7.375-4.507813 12.285156-4.507813 0 11.0625-10.644531 6.558594-10.644531 20.890625 0 2.042969.816406 5.320313 3.683593 9.410157 9.007813-4.5 11.464844-8.589844 11.464844-14.738282 0-7.371093 1.636719-15.5625 6.144531-15.5625 3.273438 0 8.1875 3.28125 9.003907 5.738282-4.09375 3.273437-9.824219 14.734375 0 20.882812 4.503906-5.320312 4.503906-13.921875 7.78125-16.792969 3.273437-3.269531 1.230468-11.460937-5.730469-13.917968-5.734375-2.050782-2.050781-9.421875 4.503906-13.101563 2.867188-.820312.410156-6.144531-4.503906-4.09375" fill="#ffd520"/><path d="m305.878906 86.367188c2.046875.050781 12.617188 3.191406 14.492188 9.792968-3.789063 4-13.140625 1.300782-16.078125 4.089844 0 0-3.324219 1.964844-5.378906 1.910156 0 0-4.476563-.933593-4.371094-5.027343.070312-2.867188 3.96875-10.957032 11.335937-10.765625" fill="#ffd520"/><path d="m310.5625 111.0625c-3-10.726562-21.96875-5.484375-21.90625-7.941406-1.714844 2.824219-2.671875 8.125 4.292969 8.304687 4.5.117188 14.394531-2.492187 17.613281-.363281" fill="#ffd520"/><path d="m281.863281 112.367188c3.621094 2.550781 16.800782-.386719 19.949219 4.613281-2.105469 1.992187-6.761719 8.015625-16.585937 7.765625-2.867188-.074219-10.160157-3.132813-3.363282-12.378906" fill="#ffd520"/><path d="m223.570313 434.039063s16.964843-22.5 17.253906-33.550782c.179687-6.960937-7.007813-14.109375-6.902344-18.203125.0625-2.457031 3.074219-8.109375 2.417969-14.269531.46875 13.53125 25.6875 20.320313 30.183594 36.417969 1.921875-26.578125 12.019531-36.96875 23.667968-44.039063-50.890625 4.011719-55.695312-16.183593-54.644531-25.167968 7.867188 12.488281 16.496094 11.484375 25.914063 11.726562 2.027343-15.101562-11.691407-23.238281-18.140625-27.089844-9.667969-6.390625-8.824219-23.167968-6.566407-31.300781 3.179688 3.769531 6.976563 15.335938 6.4375 20.234375 1.246094-.375 5.34375-.679687 6.613282-2.285156l12.792968 12.210937c.515625-4.085937 1.738282-19.617187 1.800782-22.074218 2.863281.078125 12.40625-4.59375 12.40625-4.59375-15.492188-2.859375-17.242188-14.371094-17.101563-19.691407-8.058594-5.125-7.273437-19.851562-5.433594-27.585937 2.863282 16.050781 14.542969 23.722656 23.914063 25.601562-4.367188-5.4375-6.976563-15.332031-5.1875-21.019531 2.984375 11.132813 14.652344 19.21875 22.367187 21.875-3.980468-4.199219-4.160156-13.214844-3.691406-15.660156 5.460938 10.789062 17.171875 17.238281 24.109375 18.234375-3.199219-2.949219-6.175781-14.492188-6.148437-15.722656 10.691406 14.199218 17.683593 13.15625 23.40625 13.714843-1.996094-2.101562-3.453125-9.101562-2.5625-11.945312 5.140625 7.09375 12.113281 6.867187 16.179687 7.789062.5625-5.71875-.859375-14.359375-2.414062-17.261718 4.394531 4.207031 10.902343 6.011718 14.582031 6.109375.191406-7.367188-6.015625-20.636719-8.429688-22.335938 10.640625.277344 13.949219-.871094 16.84375-2.023437-1.5-5.363282-5.355468-14.476563-10.605468-17.476563 24.171875-.195312 7.292968-12.921875 2.460937-15.910156 17.398438-7.742188 10.523438-11.199219-2.835937-17.277344 28.953125-10.722656 16.816406-16.769531 1.804687-22.074219 13.339844-9.074218 14.648438-27.882812 14.75-31.976562-1.699219 2.414062-16.542969 6.125-18.191406 6.496094 25.742187-29.238282 11-45.183594 5.070312-53.53125 3.515625 6.644531-8.9375 28.851562-14.386718 33.628906 10.945312-27.164063-4.375-36.570313-7.996094-39.125-.8125 15.546875-17.496094 42.96875-41.691406 59.957031-11.257813 7.492188-28.796875 20.554688-39.46875 69.019531 4.179687-19.140625-7.390625-30.910156-5.511719-40.285156 1.636719.042969 10.265625-.960937 12.332031-1.726562-1.132812-3.714844-1.191406-17.234375-1.191406-17.234375 1.617187.863281 6.484375 2.625 10.578125 2.734375-2.601563-10.308594-3.417969-26.304688 13.488281-46.347657 4.191406-3.988281 9.207031-7.546875 9.382813-14.503906.074218-2.863281-3.929688-6.246094-8.84375-6.371094-5.324219-.140625-11.957032 2.96875-17.6875 2.816407-4.09375-.105469-15.835938-5.324219-18.175782-9.890625-.890625 2.84375-1.996093 13.875 2.796875 18.503906-7.488281 4.3125-16.234375 13.269531-19.101562 19.410156l5.320312 4.914063c-.816406 1.226562-9.824218 14.742187-9.824218 14.742187l5.28125 4.289063c.375 1.238281-5.691407 14.136718-7.738282 14.136718-2.050781 0-7.78125-13.105468-7.367187-14.332031l4.910156-4.09375s-9.007812-13.515625-9.828125-14.742187l5.324219-4.914063c-2.863281-6.140625-10.234375-15.558594-17.605469-20.0625 4.910156-4.507812 4.09375-15.5625 3.273438-18.425781-2.457032 4.503906-14.328125 9.417969-18.425782 9.417969-5.730468 0-12.285156-3.277344-17.605468-3.277344-4.914063 0-9.007813 3.277344-9.007813 6.144531 0 6.960938 4.914063 10.644531 9.007813 14.738281 16.378906 20.472657 15.148437 36.441407 12.28125 46.679688 4.097656 0 9.011718-1.636719 10.644531-2.457031 0 0-.40625 13.511718-1.632813 17.199218 2.046875.816407 10.644532 2.046875 12.28125 2.046875 1.636719 9.417969-10.234375 20.882813-6.550781 40.125-9.417969-48.722656-26.617187-62.234375-37.671875-70.015625-23.75-17.609375-39.71875-45.453125-40.125-61.015625-3.6875 2.460938-19.246094 11.46875-9.011719 38.902344-5.320312-4.914062-17.195312-27.433594-13.511718-33.984375-6.140625 8.1875-21.292969 23.746094 3.683593 53.640625-1.632812-.410156-16.378906-4.503906-18.015625-6.960937 0 4.09375.820313 22.929687 13.925782 32.347656-15.152344 4.914062-27.4375 10.644531 1.226562 22.109375-13.515625 5.734375-20.472656 9.007812-3.277344 17.199219-4.914062 2.867187-22.109375 15.152343 2.050782 15.96875-5.324219 2.867187-9.421875 11.875-11.058594 17.199218 2.867187 1.226563 6.144531 2.457032 16.789062 2.457032-2.457031 1.636718-9.007812 14.738281-9.007812 22.109375 3.683594 0 10.238281-1.636719 14.742187-5.734375-1.640625 2.867187-3.277343 11.46875-2.867187 17.199218 4.09375-.820312 11.054687-.410156 16.375-7.371093.820312 2.867187-.816406 9.828125-2.863281 11.875 5.730468-.40625 12.691406.820312 23.75-13.097657 0 1.222657-3.277344 12.691407-6.554688 15.554688 6.964844-.816406 18.839844-6.960938 24.570313-17.609375.410156 2.460937 0 11.46875-4.09375 15.5625 7.777343-2.457031 19.652343-10.238281 22.929687-21.292969 1.636719 5.730469-1.226562 15.558594-5.734375 20.882813 9.417969-1.636719 21.292969-9.007813 24.570313-24.976563 1.636718 7.78125 2.046875 22.523438-6.140625 27.433594 0 5.324219-2.050782 16.789062-17.609375 19.246094 0 0 9.414062 4.914062 12.285156 4.914062 0 2.457031.816406 18.019531 1.226562 22.109375l13.105469-11.871094c1.226563 1.632813 5.320313 2.042969 6.546875 2.453125-.40625-4.910156 3.6875-16.375 6.960938-20.0625 2.050781 8.191407 2.460937 24.980469-7.367188 31.121094-6.554687 3.683594-20.472656 11.464844-18.835937 26.613281 9.414062 0 18.015625 1.230469 26.203125-11.058593.820312 9.011718-4.5 29.074218-55.277344 23.75 11.464844 7.375 21.292969 18.015625 22.523437 44.636718 4.914063-15.972656 30.296875-22.113281 31.121094-35.625-.824219 6.140625 2.046875 11.871094 2.046875 14.332032 0 4.09375-7.375 11.054687-7.375 18.011718 0 11.0625 16.382813 33.988282 16.382813 33.988282" fill="#ffd520"/><path d="m276.171875 300.640625c4.429688 2.980469 10.535156 4.363281 12.992188 4.433594 4.5.113281 21.152343-10.105469 26.472656-9.964844 3.6875.09375 11.347656 4.796875 12.050781 9.320313-4.558594 1.929687-25.949219 5.472656-32.5 5.296875 7.953125 9.222656 29.433594 2.410156 28.964844 20.414062-.128906 4.917969-1.421875 7.335938-4.800781 11.34375-3.160157-4.585937-7.128907-9.191406-9.867188-14.179687-2.371094-3.339844-7.253906-4.691407-12.164062-4.820313-.292969 11.054688 10.464843 6.832031 10.101562 21.152344-.054687 2.050781-.957031 5.300781-3.929687 9.320312-8.886719-4.738281-11.238282-8.894531-11.082032-15.035156.191407-7.371094-1.234375-15.597656-5.738281-15.714844-3.273437-.082031-8.265625 3.066407-9.148437 5.503907 4.003906 3.378906 9.441406 14.988281-.542969 20.875-4.363281-5.441407-4.140625-14.039063-7.335938-16.984375-3.195312-3.359375-.9375-11.492188 6.082032-13.769532 5.789062-1.898437 2.292968-9.359375-4.160157-13.214843-2.847656-.894532-.253906-6.152344 4.605469-3.976563" fill="#ffd520"/><g fill="#2e3092"><path d="m172.796875 93.769531c.820313-2.457031 9.007813-3.683593 11.054688 0-.414063 3.277344-8.601563 6.550782-11.054688 0"/><path d="m283.121094 95.199219c-.753906-2.476563-8.910156-3.917969-11.050781-.285156.324218 3.28125 8.425781 6.769531 11.050781.285156"/><path d="m336.765625 167.492188-21.316406 23.347656 1.078125.984375s19.707031-21.585938 20.761719-22.738281c.828125.960937 4.53125 5.261718 5.195312 6.03125-.835937.917968-21.054687 23.136718-21.054687 23.136718l1.082031.984375 21.925781-24.09375-7.117187-8.257812z"/><path d="m288.539063 220.296875-.417969.457031 6.871094 8.71875 20.988281-23.0625-1.082031-.984375s-18.730469 20.585938-19.824219 21.789063c-.820313-1.042969-4.429688-5.621094-5.039063-6.390625.804688-.878906 20.046875-21.953125 20.046875-21.953125l-1.078125-.984375z"/><path d="m316.796875 160.84375-33.988281 37.304688 12.304687 15.820312 1.152344-.898437s-10.839844-13.933594-11.546875-14.847657c.792969-.871093 31.464844-34.539062 32.574219-35.757812.972656 1.246094 11.503906 14.707031 11.503906 14.707031l1.152344-.902344-12.570313-16.066406z"/><path d="m334.65625 184.644531s12.128906 15.507813 12.847656 16.421875c-.792968.875-31.46875 34.683594-32.582031 35.910157-.984375-1.261719-12.683594-16.292969-12.683594-16.292969l-1.152343.894531 13.75 17.664063 34.574218-38.105469-13.601562-17.390625z"/><path d="m316.175781 173.199219-22.503906 24.808594 7.277344 9.554687 1.164062-.882812s-5.882812-7.722657-6.542968-8.589844c.765625-.84375 20.011718-22.0625 21.101562-23.265625.910156 1.183594 6.484375 8.414062 6.484375 8.414062l1.15625-.890625-7.550781-9.796875z"/><path d="m329.027344 190.863281s7.097656 9.199219 7.78125 10.082032c-.777344.851562-20.246094 22.164062-21.34375 23.367187-.925781-1.214844-7.507813-9.859375-7.507813-9.859375l-1.160156.886719 8.566406 11.25 23.351563-25.5625-8.53125-11.054688z"/><path d="m295.929688 166.230469-6.996094 7.34375 7.976562 10.070312 1.144532-.90625s-6.480469-8.179687-7.1875-9.074218c.691406-.726563 4.648437-4.878907 5.539062-5.816407.902344 1.136719 6.859375 8.667969 6.859375 8.667969l1.144531-.90625-7.902343-9.988281z"/><path d="m308.328125 182.90625 21.25 26.859375 1.148438-.90625-21.253907-26.855469z"/><path d="m334.640625 216.15625s4.8125 6.085938 5.496094 6.953125c-.6875.726563-4.640625 4.875-5.53125 5.8125-.863281-1.089844-5.214844-6.59375-5.214844-6.59375l-1.148437.90625 6.261718 7.914063 7.566407-7.949219-6.285157-7.949219z"/><path d="m301.882813 189.9375 21.253906 26.832031 1.140625-.910156-21.25-26.828125z"/><path d="m130.851563 195.585938c0 8.222656 6.691406 14.917968 14.917968 14.917968v-1.460937c-7.421875 0-13.457031-6.039063-13.457031-13.457031 0-7.421875 6.035156-13.457032 13.457031-13.457032s13.457032 6.035157 13.457032 13.457032c0 7.417968-6.035157 13.457031-13.457032 13.457031v1.460937c8.226563 0 14.917969-6.695312 14.917969-14.917968 0-8.226563-6.691406-14.917969-14.917969-14.917969-8.226562 0-14.917968 6.691406-14.917968 14.917969"/><path d="m153.519531 183.679688 1.179688.855468 9.492187-13.0625-1.179687-.859375z"/><path d="m127.34375 170.617188 1.1875.847656c3.273438-4.574219 9.871094-9.195313 17.238281-9.195313 7.371094 0 13.96875 4.621094 17.238282 9.195313l1.1875-.847656c-3.230469-4.523438-9.996094-9.808594-18.425782-9.808594-8.425781 0-15.195312 5.285156-18.425781 9.808594"/><path d="m127.347656 171.472656 9.492188 13.0625 1.183594-.855468-9.496094-13.066407z"/><path d="m112.695313 184.839844c-2.605469 8.015625.332031 16.082031 3.632812 20.554687l1.175781-.871093c-3.34375-4.519532-5.695312-12.222657-3.417968-19.234375 2.273437-7.007813 8.707031-11.855469 14.070312-13.550782l-.4375-1.390625c-5.304687 1.671875-12.417969 6.472657-15.023437 14.492188"/><path d="m116.691406 204.265625.453125 1.386719 15.359375-4.988281-.453125-1.390625z"/><path d="m125.328125 223.722656c6.820313 4.953125 15.398438 4.652344 20.671875 2.890625l-.464844-1.386718c-5.335937 1.785156-13.386718 1.644531-19.347656-2.6875-5.964844-4.335938-8.585937-11.949219-8.539062-17.574219l-1.460938-.011719c-.046875 5.558594 2.320313 13.808594 9.140625 18.769531"/><path d="m145.039063 209.769531v16.152344h1.457031v-16.152344z"/><path d="m173.890625 204.96875c.046875 5.621094-2.578125 13.238281-8.539062 17.570313-5.960938 4.332031-14.015625 4.472656-19.351563 2.6875l-.464844 1.386718c5.277344 1.761719 13.855469 2.0625 20.675782-2.890625 6.816406-4.957031 9.183593-13.207031 9.140625-18.765625z"/><path d="m159.035156 200.664063 15.359375 4.992187.453125-1.386719-15.359375-4.996093z"/><path d="m163.382813 171.738281c5.359375 1.691407 11.792968 6.539063 14.070312 13.554688 2.277344 7.007812-.074219 14.710937-3.417969 19.234375l1.175782.867187c3.304687-4.472656 6.238281-12.539062 3.632812-20.554687-2.605469-8.019531-9.722656-12.820313-15.023437-14.492188z"/><path d="m120.132813 161.359375c-.003907.886719.347656 10.917969 1.011718 12.929688l1.386719-.453125c-.472656-1.441407-.820312-8.636719-.910156-11.433594 2.6875.96875 9.421875 3.515625 10.636719 4.417969l.871093-1.171875c-1.746093-1.300782-11.410156-4.773438-12.035156-4.976563l-.957031-.316406z"/><path d="m104.9375 208.261719-.59375.808594.953125.316406c.839844.277344 10.476563 3.046875 12.613281 3.039062l-.007812-1.460937c-1.523438.007812-8.472656-1.890625-11.152344-2.667969 1.757813-2.257812 6.273438-7.890625 7.488281-8.75l-.84375-1.191406c-1.746093 1.238281-8.066406 9.371094-8.457031 9.90625"/><path d="m138.398438 227.234375c.640625 2.054688 6.445312 10.59375 6.8125 11.105469l.589843.8125.59375-.808594c.523438-.722656 6.144532-9.066406 6.78125-11.058594l-1.394531-.445312c-.464844 1.457031-4.402344 7.46875-5.976562 9.785156-1.601563-2.355469-5.566407-8.398437-6.015625-9.828125z"/><path d="m177.355469 199.523438c1.214844.875 5.738281 6.503906 7.453125 8.710937-2.75.796875-9.710938 2.695313-11.203125 2.679688l-.015625 1.460937c2.144531.023438 12.035156-2.84375 12.667969-3.046875l.957031-.304687-.589844-.816407c-.519531-.722656-6.710937-8.640625-8.417969-9.867187z"/><path d="m170.398438 160.628906c-.84375.269532-10.269532 3.699219-11.984375 4.957032l.863281 1.179687c1.226562-.898437 7.960937-3.453125 10.589844-4.398437-.09375 2.859375-.4375 10.0625-.914063 11.480468l1.382813.46875c.6875-2.039062 1.015625-12.328125 1.015625-12.988281l.003906-1.003906z"/><path d="m123.53125 209.136719c.539063 1.726562 1.335938 3.453125 2.425781 5.027344.964844 1.394531 2.15625 2.671875 3.605469 3.722656 1.445313 1.050781 3.03125 1.792969 4.660156 2.277344 1.832032.550781 3.726563.777343 5.535157.757812.714843-.011719 1.425781-.019531 1.4375 1.402344.007812 1.429687-.703125 1.4375-1.414063 1.445312-2.0625.023438-4.242187-.242187-6.371094-.878906-1.921875-.574219-3.800781-1.453125-5.515625-2.703125-1.714843-1.242187-3.128906-2.757812-4.273437-4.410156-1.265625-1.828125-2.1875-3.820313-2.804688-5.796875-.210937-.679688-.421875-1.359375.933594-1.78125s1.570313.257812 1.78125.9375m28.25 11.785156c1.808594.019531 3.699219-.207031 5.53125-.753906 1.628906-.488281 3.214844-1.230469 4.664063-2.28125 1.445312-1.050781 2.640625-2.328125 3.605468-3.722656 1.089844-1.574219 1.886719-3.304688 2.425782-5.027344.210937-.679688.425781-1.359375 1.78125-.9375 1.355468.421875 1.144531 1.101562.933593 1.78125-.617187 1.976562-1.539062 3.96875-2.800781 5.796875-1.148437 1.652344-2.5625 3.167969-4.277344 4.410156-1.71875 1.25-3.597656 2.132813-5.519531 2.707031-2.128906.636719-4.308594.898438-6.375.875-.714844-.007812-1.425781-.019531-1.410156-1.445312.019531-1.421875.730469-1.414063 1.441406-1.402344m4.019531-49.371094c-1.449218-1.078125-3.113281-2.007812-4.917968-2.640625-1.597657-.5625-3.320313-.894531-5.113282-.894531-1.792968 0-3.515625.332031-5.113281.894531-1.804687.632813-3.46875 1.5625-4.917969 2.640625-.566406.425782-1.140625.851563-1.984375-.289062-.847656-1.140625-.277343-1.566406.296875-1.992188 1.660157-1.238281 3.578125-2.304687 5.671875-3.039062 1.898438-.667969 3.933594-1.058594 6.046875-1.058594 2.117188 0 4.152344.390625 6.046875 1.058594 2.09375.734375 4.011719 1.800781 5.675782 3.039062.570312.425782 1.140625.851563.296875 1.992188-.847657 1.140625-1.417969.714844-1.988282.289062m15.925782 26.140625c.574218-1.699218.945312-3.5625.988281-5.480468v-.007813c.039062-1.703125-.175781-3.445312-.726563-5.136719-.550781-1.699218-1.398437-3.230468-2.429687-4.582031-1.15625-1.519531-2.554688-2.8125-4.03125-3.859375-.582031-.410156-1.164063-.820312-.339844-1.984375.824219-1.164062 1.40625-.75 1.988281-.339844 1.683594 1.195313 3.292969 2.6875 4.644532 4.460938 1.214843 1.59375 2.21875 3.410156 2.871093 5.425781.660157 2.027344.914063 4.082031.871094 6.078125v.003906-.003906.003906c-.054687 2.214844-.476562 4.367188-1.144531 6.335938-.230469.675781-.457031 1.347656-1.804688.890625-1.34375-.453125-1.117187-1.128906-.886718-1.804688m-45.714844-19.066406c-1.476563 1.046875-2.875 2.339844-4.03125 3.855469-1.03125 1.351562-1.878906 2.886719-2.429688 4.582031-.550781 1.695313-.765625 3.4375-.722656 5.144531.042969 1.925782.410156 3.789063.984375 5.492188.226563.671875.457031 1.347656-.886719 1.796875-1.347656.453125-1.578125-.222656-1.804687-.894531-.667969-1.972657-1.09375-4.125-1.140625-6.339844-.046875-1.992188.207031-4.046875.867187-6.074219.65625-2.019531 1.660157-3.835937 2.875-5.425781 1.347657-1.773438 2.957032-3.265625 4.640625-4.460938.582032-.410156 1.164063-.824218 1.988282.339844.820312 1.164063.242187 1.574219-.339844 1.984375"/></g></svg>